<svg width="81" height="81" viewBox="0 0 81 81" fill="none" xmlns="http://www.w3.org/2000/svg">
<path d="M40.0981 80.9329C62.1895 80.9329 80.0981 63.0243 80.0981 40.9329C80.0981 18.8415 62.1895 0.932861 40.0981 0.932861C18.0068 0.932861 0.0981445 18.8415 0.0981445 40.9329C0.0981445 63.0243 18.0068 80.9329 40.0981 80.9329Z" fill="#7E7E7E"/>
<path d="M27.066 50.0941C32.0337 56.9328 47.5176 57.4489 52.8079 50.0941C58.4853 51.7925 69.9563 57.8591 70.4208 67.021C63.0854 75.5394 52.2216 80.9328 40.0982 80.9328C27.7959 80.9328 16.7906 75.3789 9.45312 66.6417C9.91765 57.4798 21.3886 51.7925 27.066 50.0941Z" fill="#F1F6F9"/>
<path d="M40.1626 51.1263C49.0348 51.1263 56.2271 42.8363 56.2271 32.6102C56.2271 22.384 49.0348 14.0941 40.1626 14.0941C31.2905 14.0941 24.0981 22.384 24.0981 32.6102C24.0981 42.8363 31.2905 51.1263 40.1626 51.1263Z" fill="#F1F6F9"/>
</svg>
