<svg width="23" height="23" viewBox="0 0 23 23" fill="none" xmlns="http://www.w3.org/2000/svg">
<path d="M6.25698 5.57343C5.86646 5.96396 5.86646 6.59712 6.25698 6.98765C6.64751 7.37817 7.28067 7.37817 7.6712 6.98765L6.25698 5.57343ZM11.7368 1.50781L12.4439 0.800706C12.0534 0.410181 11.4202 0.410181 11.0297 0.800706L11.7368 1.50781ZM15.8024 6.98765C16.193 7.37817 16.8261 7.37817 17.2167 6.98765C17.6072 6.59712 17.6072 5.96396 17.2167 5.57343L15.8024 6.98765ZM10.7368 14.2351C10.7368 14.7874 11.1845 15.2351 11.7368 15.2351C12.2891 15.2351 12.7368 14.7874 12.7368 14.2351H10.7368ZM22.7368 14.2351C22.7368 13.6828 22.2891 13.2351 21.7368 13.2351C21.1845 13.2351 20.7368 13.6828 20.7368 14.2351H22.7368ZM2.73682 14.2351C2.73682 13.6828 2.2891 13.2351 1.73682 13.2351C1.18453 13.2351 0.736816 13.6828 0.736816 14.2351H2.73682ZM7.6712 6.98765L12.4439 2.21492L11.0297 0.800706L6.25698 5.57343L7.6712 6.98765ZM11.0297 2.21492L15.8024 6.98765L17.2167 5.57343L12.4439 0.800706L11.0297 2.21492ZM12.7368 14.2351V1.50781H10.7368V14.2351H12.7368ZM20.7368 14.2351V20.5987H22.7368V14.2351H20.7368ZM20.7368 20.5987C20.7368 20.5746 20.7464 20.5515 20.7634 20.5344L22.1777 21.9487C22.5357 21.5906 22.7368 21.105 22.7368 20.5987H20.7368ZM20.7634 20.5344C20.7805 20.5174 20.8036 20.5078 20.8277 20.5078V22.5078C21.334 22.5078 21.8196 22.3067 22.1777 21.9487L20.7634 20.5344ZM20.8277 20.5078H2.64591V22.5078H20.8277V20.5078ZM2.64591 20.5078C2.67002 20.5078 2.69314 20.5174 2.71019 20.5344L1.29598 21.9487C1.654 22.3067 2.13959 22.5078 2.64591 22.5078V20.5078ZM2.71019 20.5344C2.72724 20.5515 2.73682 20.5746 2.73682 20.5987H0.736816C0.736816 21.105 0.937952 21.5906 1.29598 21.9487L2.71019 20.5344ZM2.73682 20.5987V14.2351H0.736816V20.5987H2.73682Z" fill="white"/>
</svg>
