<svg width="23" height="23" viewBox="0 0 23 23" fill="none" xmlns="http://www.w3.org/2000/svg">
<path d="M7.1712 8.75525C6.78067 8.36473 6.14751 8.36473 5.75698 8.75525C5.36646 9.14578 5.36646 9.77894 5.75698 10.1695L7.1712 8.75525ZM11.2368 14.2351L10.5297 14.9422C10.9202 15.3327 11.5534 15.3327 11.9439 14.9422L11.2368 14.2351ZM16.7167 10.1695C17.1072 9.77894 17.1072 9.14578 16.7167 8.75525C16.3261 8.36473 15.693 8.36473 15.3024 8.75525L16.7167 10.1695ZM12.2368 1.50781C12.2368 0.955528 11.7891 0.507812 11.2368 0.507812C10.6845 0.507812 10.2368 0.955528 10.2368 1.50781H12.2368ZM22.2368 14.2351C22.2368 13.6828 21.7891 13.2351 21.2368 13.2351C20.6845 13.2351 20.2368 13.6828 20.2368 14.2351H22.2368ZM2.23682 14.2351C2.23682 13.6828 1.7891 13.2351 1.23682 13.2351C0.684532 13.2351 0.236816 13.6828 0.236816 14.2351H2.23682ZM5.75698 10.1695L10.5297 14.9422L11.9439 13.528L7.1712 8.75525L5.75698 10.1695ZM11.9439 14.9422L16.7167 10.1695L15.3024 8.75525L10.5297 13.528L11.9439 14.9422ZM10.2368 1.50781V14.2351H12.2368V1.50781H10.2368ZM20.2368 14.2351V20.5987H22.2368V14.2351H20.2368ZM20.2368 20.5987C20.2368 20.5746 20.2464 20.5515 20.2634 20.5344L21.6777 21.9487C22.0357 21.5906 22.2368 21.105 22.2368 20.5987H20.2368ZM20.2634 20.5344C20.2805 20.5174 20.3036 20.5078 20.3277 20.5078V22.5078C20.834 22.5078 21.3196 22.3067 21.6777 21.9487L20.2634 20.5344ZM20.3277 20.5078H2.14591V22.5078H20.3277V20.5078ZM2.14591 20.5078C2.17002 20.5078 2.19314 20.5174 2.21019 20.5344L0.795976 21.9487C1.154 22.3067 1.63959 22.5078 2.14591 22.5078V20.5078ZM2.21019 20.5344C2.22724 20.5515 2.23682 20.5746 2.23682 20.5987H0.236816C0.236816 21.105 0.437952 21.5906 0.795976 21.9487L2.21019 20.5344ZM2.23682 20.5987V14.2351H0.236816V20.5987H2.23682Z" fill="white"/>
</svg>
