<svg width="28" height="23" viewBox="0 0 28 23" fill="none" xmlns="http://www.w3.org/2000/svg">
<path d="M2.41861 8.78054L1.89452 7.92888C1.51349 8.16336 1.33457 8.6224 1.45641 9.05288C1.57826 9.48337 1.97122 9.78054 2.41861 9.78054V8.78054ZM26.055 8.78054V9.78054C26.5024 9.78054 26.8953 9.48337 27.0172 9.05288C27.139 8.6224 26.9601 8.16336 26.5791 7.92888L26.055 8.78054ZM14.2368 1.50781L14.7609 0.656154C14.4395 0.458365 14.0341 0.458365 13.7127 0.656154L14.2368 1.50781ZM7.05498 8.78054C7.05498 8.22826 6.60726 7.78054 6.05498 7.78054C5.50269 7.78054 5.05498 8.22826 5.05498 8.78054H7.05498ZM5.05498 16.9624C5.05498 17.5146 5.50269 17.9624 6.05498 17.9624C6.60726 17.9624 7.05498 17.5146 7.05498 16.9624H5.05498ZM12.5095 8.78054C12.5095 8.22826 12.0618 7.78054 11.5095 7.78054C10.9572 7.78054 10.5095 8.22826 10.5095 8.78054H12.5095ZM10.5095 16.9624C10.5095 17.5146 10.9572 17.9624 11.5095 17.9624C12.0618 17.9624 12.5095 17.5146 12.5095 16.9624H10.5095ZM17.9641 8.78054C17.9641 8.22826 17.5164 7.78054 16.9641 7.78054C16.4118 7.78054 15.9641 8.22826 15.9641 8.78054H17.9641ZM15.9641 16.9624C15.9641 17.5146 16.4118 17.9624 16.9641 17.9624C17.5164 17.9624 17.9641 17.5146 17.9641 16.9624H15.9641ZM23.4186 8.78054C23.4186 8.22826 22.9709 7.78054 22.4186 7.78054C21.8663 7.78054 21.4186 8.22826 21.4186 8.78054H23.4186ZM21.4186 16.9624C21.4186 17.5146 21.8663 17.9624 22.4186 17.9624C22.9709 17.9624 23.4186 17.5146 23.4186 16.9624H21.4186ZM3.3277 15.9624C2.77542 15.9624 2.3277 16.4101 2.3277 16.9624C2.3277 17.5146 2.77542 17.9624 3.3277 17.9624V15.9624ZM25.1459 17.9624C25.6982 17.9624 26.1459 17.5146 26.1459 16.9624C26.1459 16.4101 25.6982 15.9624 25.1459 15.9624V17.9624ZM1.50952 20.5078C0.957237 20.5078 0.509521 20.9555 0.509521 21.5078C0.509521 22.0601 0.957237 22.5078 1.50952 22.5078V20.5078ZM26.9641 22.5078C27.5164 22.5078 27.9641 22.0601 27.9641 21.5078C27.9641 20.9555 27.5164 20.5078 26.9641 20.5078V22.5078ZM2.41861 9.78054H26.055V7.78054H2.41861V9.78054ZM26.5791 7.92888L14.7609 0.656154L13.7127 2.35947L25.5309 9.6322L26.5791 7.92888ZM13.7127 0.656154L1.89452 7.92888L2.94271 9.6322L14.7609 2.35947L13.7127 0.656154ZM5.05498 8.78054V16.9624H7.05498V8.78054H5.05498ZM10.5095 8.78054V16.9624H12.5095V8.78054H10.5095ZM15.9641 8.78054V16.9624H17.9641V8.78054H15.9641ZM21.4186 8.78054V16.9624H23.4186V8.78054H21.4186ZM3.3277 17.9624H25.1459V15.9624H3.3277V17.9624ZM1.50952 22.5078H26.9641V20.5078H1.50952V22.5078Z" fill="white"/>
</svg>
