<svg width="103" height="104" viewBox="0 0 103 104" fill="none" xmlns="http://www.w3.org/2000/svg">
<rect x="21.7588" y="1.8999" width="59" height="66.9999" fill="#7FB2AC" stroke="#29454D" stroke-width="2"/>
<path d="M28.2349 20.154C28.2349 17.9448 30.0257 16.154 32.2349 16.154H53.7794C55.9886 16.154 57.7794 17.9448 57.7794 20.154V68.8999H28.2349V20.154Z" fill="white" stroke="#29454D" stroke-width="2"/>
<path d="M39.8926 33.146H38.3401L41.8285 23.4189H43.5183L47.0067 33.146H45.4542L42.7136 25.1857H42.6379L39.8926 33.146ZM40.1529 29.3368H45.1891V30.5717H40.1529V29.3368Z" fill="#19888C"/>
<path d="M31.958 42.9287C31.958 42.3764 32.4057 41.9287 32.958 41.9287H34.4436H35.9293C36.4816 41.9287 36.9293 42.3764 36.9293 42.9287V51.2542C36.9293 51.8065 36.4816 52.2542 35.9293 52.2542H34.4436H32.958C32.4057 52.2542 31.958 51.8065 31.958 51.2542V42.9287Z" fill="#7FB2AC"/>
<path d="M34.4436 39.251V41.9287M34.4436 41.9287H32.958C32.4057 41.9287 31.958 42.3764 31.958 42.9287V51.2542C31.958 51.8065 32.4057 52.2542 32.958 52.2542H34.4436M34.4436 41.9287H35.9293C36.4816 41.9287 36.9293 42.3764 36.9293 42.9287V51.2542C36.9293 51.8065 36.4816 52.2542 35.9293 52.2542H34.4436M34.4436 52.2542V55.2663" stroke="#29454D" stroke-width="2" stroke-linecap="round"/>
<rect x="62.1274" y="33.1621" width="13.0167" height="16.1085" rx="3" fill="#19888C" stroke="#29454D" stroke-width="2"/>
<path d="M66.6999 39.6611C66.6999 40.2634 66.2134 40.7516 65.6132 40.7516C65.013 40.7516 64.5264 40.2634 64.5264 39.6611C64.5264 39.0589 65.013 38.5707 65.6132 38.5707C66.2134 38.5707 66.6999 39.0589 66.6999 39.6611Z" fill="#29454D"/>
<path d="M66.6334 42.9145C66.6334 43.5168 66.1468 44.005 65.5466 44.005C64.9464 44.005 64.4599 43.5168 64.4599 42.9145C64.4599 42.3123 64.9464 41.824 65.5466 41.824C66.1468 41.824 66.6334 42.3123 66.6334 42.9145Z" fill="#29454D"/>
<path d="M66.6332 46.1683C66.6332 46.7705 66.1467 47.2587 65.5465 47.2587C64.9463 47.2587 64.4597 46.7705 64.4597 46.1683C64.4597 45.566 64.9463 45.0778 65.5465 45.0778C66.1467 45.0778 66.6332 45.566 66.6332 46.1683Z" fill="#29454D"/>
<path d="M69.789 39.6611C69.789 40.2634 69.3025 40.7516 68.7023 40.7516C68.1021 40.7516 67.6155 40.2634 67.6155 39.6611C67.6155 39.0589 68.1021 38.5707 68.7023 38.5707C69.3025 38.5707 69.789 39.0589 69.789 39.6611Z" fill="#29454D"/>
<path d="M69.7225 42.9145C69.7225 43.5168 69.2359 44.005 68.6358 44.005C68.0356 44.005 67.549 43.5168 67.549 42.9145C67.549 42.3123 68.0356 41.824 68.6358 41.824C69.2359 41.824 69.7225 42.3123 69.7225 42.9145Z" fill="#29454D"/>
<path d="M69.7223 46.1683C69.7223 46.7705 69.2358 47.2587 68.6356 47.2587C68.0354 47.2587 67.5488 46.7705 67.5488 46.1683C67.5488 45.566 68.0354 45.0778 68.6356 45.0778C69.2358 45.0778 69.7223 45.566 69.7223 46.1683Z" fill="#29454D"/>
<path d="M72.8783 39.6611C72.8783 40.2634 72.3918 40.7516 71.7916 40.7516C71.1914 40.7516 70.7048 40.2634 70.7048 39.6611C70.7048 39.0589 71.1914 38.5707 71.7916 38.5707C72.3918 38.5707 72.8783 39.0589 72.8783 39.6611Z" fill="#29454D"/>
<path d="M72.8119 42.9145C72.8119 43.5168 72.3254 44.005 71.7252 44.005C71.125 44.005 70.6385 43.5168 70.6385 42.9145C70.6385 42.3123 71.125 41.824 71.7252 41.824C72.3254 41.824 72.8119 42.3123 72.8119 42.9145Z" fill="#29454D"/>
<path d="M72.8118 46.1683C72.8118 46.7705 72.3252 47.2587 71.725 47.2587C71.1248 47.2587 70.6383 46.7705 70.6383 46.1683C70.6383 45.566 71.1248 45.0778 71.725 45.0778C72.3252 45.0778 72.8118 45.566 72.8118 46.1683Z" fill="#29454D"/>
<path d="M65.7627 36.3833C65.7627 35.8402 66.2015 35.3999 66.7427 35.3999H70.9145C71.4558 35.3999 71.8946 35.8402 71.8946 36.3833C71.8946 36.9265 71.4558 37.3668 70.9145 37.3668H66.7427C66.2015 37.3668 65.7627 36.9265 65.7627 36.3833Z" fill="#29454D"/>
<path d="M73.2382 24.2726C73.2382 26.7915 71.2041 28.8276 68.7022 28.8276C66.2003 28.8276 64.1663 26.7915 64.1663 24.2726C64.1663 21.7537 66.2003 19.7176 68.7022 19.7176C71.2041 19.7176 73.2382 21.7537 73.2382 24.2726Z" fill="white" stroke="#29454D" stroke-width="2"/>
<path d="M2.52015 99.8999H0.656516L4.84402 88.2635H6.87243L11.0599 99.8999H9.19629L5.90652 90.3772H5.81561L2.52015 99.8999ZM2.83265 95.3431H8.87811V96.8204H2.83265V95.3431ZM14.3028 88.2635V99.8999H12.604V88.2635H14.3028ZM16.5883 103.173V91.1726H18.2474V92.5874H18.3895C18.488 92.4056 18.63 92.1954 18.8156 91.9567C19.0012 91.7181 19.2588 91.5098 19.5883 91.3317C19.9179 91.1499 20.3535 91.059 20.8952 91.059C21.5997 91.059 22.2285 91.237 22.7815 91.5931C23.3345 91.9491 23.7683 92.4624 24.0827 93.1329C24.4008 93.8033 24.5599 94.6101 24.5599 95.5533C24.5599 96.4965 24.4027 97.3052 24.0883 97.9794C23.7739 98.6499 23.3421 99.1669 22.7929 99.5306C22.2436 99.8904 21.6167 100.07 20.9122 100.07C20.3819 100.07 19.9482 99.9813 19.6111 99.8033C19.2777 99.6253 19.0164 99.4169 18.827 99.1783C18.6376 98.9397 18.4917 98.7276 18.3895 98.5419H18.2872V103.173H16.5883ZM18.2531 95.5363C18.2531 96.1499 18.3421 96.6878 18.5202 97.1499C18.6982 97.612 18.9558 97.9738 19.2929 98.2351C19.63 98.4927 20.0429 98.6215 20.5315 98.6215C21.0391 98.6215 21.4633 98.487 21.8042 98.2181C22.1452 97.9454 22.4027 97.576 22.577 97.1101C22.755 96.6442 22.844 96.1196 22.844 95.5363C22.844 94.9605 22.7569 94.4435 22.5827 93.9851C22.4122 93.5268 22.1546 93.1651 21.8099 92.8999C21.469 92.6348 21.0429 92.5022 20.5315 92.5022C20.0391 92.5022 19.6224 92.6291 19.2815 92.8829C18.9444 93.1366 18.6887 93.4908 18.5145 93.9454C18.3402 94.3999 18.2531 94.9302 18.2531 95.5363ZM28.1622 94.7181V99.8999H26.4633V88.2635H28.1395V92.5931H28.2474C28.452 92.1234 28.7645 91.7503 29.1849 91.4738C29.6054 91.1973 30.1546 91.059 30.8327 91.059C31.4311 91.059 31.9539 91.1821 32.4008 91.4283C32.8516 91.6745 33.2001 92.0419 33.4463 92.5306C33.6963 93.0154 33.8213 93.6215 33.8213 94.3488V99.8999H32.1224V94.5533C32.1224 93.9132 31.9577 93.4169 31.6281 93.0647C31.2986 92.7086 30.8402 92.5306 30.2531 92.5306C29.8516 92.5306 29.4917 92.6158 29.1736 92.7863C28.8592 92.9567 28.6111 93.2067 28.4292 93.5363C28.2512 93.862 28.1622 94.256 28.1622 94.7181ZM38.6281 100.093C38.0751 100.093 37.5751 99.9908 37.1281 99.7863C36.6811 99.5779 36.327 99.2768 36.0656 98.8829C35.808 98.4889 35.6792 98.006 35.6792 97.434C35.6792 96.9416 35.7739 96.5363 35.9633 96.2181C36.1527 95.8999 36.4084 95.648 36.7304 95.4624C37.0523 95.2768 37.4122 95.1366 37.8099 95.0419C38.2077 94.9473 38.613 94.8753 39.0258 94.826C39.5486 94.7654 39.9728 94.7162 40.2986 94.6783C40.6243 94.6366 40.8611 94.5704 41.0088 94.4794C41.1565 94.3885 41.2304 94.2408 41.2304 94.0363V93.9965C41.2304 93.5003 41.0902 93.1158 40.8099 92.8431C40.5334 92.5704 40.1205 92.434 39.5713 92.434C38.9993 92.434 38.5486 92.5609 38.219 92.8147C37.8933 93.0647 37.6679 93.3431 37.5429 93.6499L35.9463 93.2863C36.1357 92.756 36.4122 92.3279 36.7758 92.0022C37.1433 91.6726 37.5656 91.434 38.0429 91.2863C38.5202 91.1348 39.022 91.059 39.5486 91.059C39.897 91.059 40.2664 91.1007 40.6565 91.184C41.0505 91.2635 41.4179 91.4113 41.7588 91.6272C42.1035 91.8431 42.3857 92.1518 42.6054 92.5533C42.8251 92.951 42.9349 93.4681 42.9349 94.1044V99.8999H41.2758V98.7067H41.2077C41.0978 98.9264 40.933 99.1423 40.7133 99.3544C40.4936 99.5666 40.2114 99.7427 39.8667 99.8829C39.522 100.023 39.1092 100.093 38.6281 100.093ZM38.9974 98.7294C39.4671 98.7294 39.8686 98.6366 40.202 98.451C40.5391 98.2654 40.7948 98.023 40.969 97.7238C41.147 97.4207 41.2361 97.0969 41.2361 96.7522V95.6272C41.1755 95.6878 41.058 95.7446 40.8838 95.7976C40.7133 95.8469 40.5183 95.8904 40.2986 95.9283C40.0789 95.9624 39.8648 95.9946 39.6565 96.0249C39.4482 96.0514 39.2739 96.0741 39.1338 96.0931C38.8042 96.1348 38.5031 96.2048 38.2304 96.3033C37.9614 96.4018 37.7455 96.5438 37.5827 96.7294C37.4236 96.9113 37.344 97.1537 37.344 97.4567C37.344 97.8772 37.4993 98.1954 37.8099 98.4113C38.1205 98.6234 38.5164 98.7294 38.9974 98.7294ZM49.5684 99.8999V88.2635H53.8298C54.6556 88.2635 55.3393 88.3999 55.8809 88.6726C56.4226 88.9416 56.8279 89.3071 57.0969 89.7692C57.3658 90.2276 57.5003 90.7446 57.5003 91.3204C57.5003 91.8052 57.4113 92.2143 57.2332 92.5476C57.0552 92.8772 56.8166 93.1423 56.5173 93.3431C56.2219 93.5401 55.8961 93.684 55.54 93.7749V93.8885C55.9264 93.9075 56.3033 94.0325 56.6707 94.2635C57.0419 94.4908 57.3488 94.8147 57.5912 95.2351C57.8336 95.6556 57.9548 96.1669 57.9548 96.7692C57.9548 97.3639 57.8147 97.898 57.5344 98.3715C57.2578 98.8412 56.8298 99.2143 56.2503 99.4908C55.6707 99.7635 54.9302 99.8999 54.0287 99.8999H49.5684ZM51.3241 98.3942H53.8582C54.6991 98.3942 55.3014 98.2313 55.665 97.9056C56.0287 97.5798 56.2105 97.1726 56.2105 96.684C56.2105 96.3166 56.1177 95.9794 55.9321 95.6726C55.7465 95.3658 55.4813 95.1215 55.1366 94.9397C54.7957 94.7579 54.3904 94.6669 53.9207 94.6669H51.3241V98.3942ZM51.3241 93.2976H53.6764C54.0703 93.2976 54.4245 93.2219 54.7389 93.0704C55.0571 92.9188 55.309 92.7067 55.4946 92.434C55.684 92.1575 55.7787 91.8317 55.7787 91.4567C55.7787 90.9757 55.6101 90.5723 55.273 90.2465C54.9359 89.9207 54.4188 89.7579 53.7219 89.7579H51.3241V93.2976ZM65.4292 96.2806V91.1726H67.1338V99.8999H65.4633V98.3885H65.3724C65.1717 98.8544 64.8497 99.2427 64.4065 99.5533C63.9671 99.8601 63.4198 100.014 62.7645 100.014C62.2039 100.014 61.7077 99.8904 61.2758 99.6442C60.8478 99.3942 60.5107 99.0249 60.2645 98.5363C60.022 98.0476 59.9008 97.4435 59.9008 96.7238V91.1726H61.5997V96.5192C61.5997 97.1139 61.7645 97.5874 62.094 97.9397C62.4236 98.2919 62.8516 98.4681 63.3781 98.4681C63.6963 98.4681 64.0126 98.3885 64.327 98.2294C64.6452 98.0704 64.9084 97.8298 65.1167 97.5079C65.3289 97.1859 65.433 96.7768 65.4292 96.2806ZM71.1153 94.7181V99.8999H69.4165V91.1726H71.0471V92.5931H71.1551C71.3559 92.131 71.6702 91.7598 72.0983 91.4794C72.5301 91.1991 73.0737 91.059 73.729 91.059C74.3237 91.059 74.8445 91.184 75.2915 91.434C75.7384 91.6802 76.085 92.0476 76.3312 92.5363C76.5774 93.0249 76.7006 93.6291 76.7006 94.3488V99.8999H75.0017V94.5533C75.0017 93.9207 74.8369 93.4264 74.5074 93.0704C74.1778 92.7105 73.7252 92.5306 73.1494 92.5306C72.7555 92.5306 72.4051 92.6158 72.0983 92.7863C71.7952 92.9567 71.5547 93.2067 71.3767 93.5363C71.2024 93.862 71.1153 94.256 71.1153 94.7181ZM80.5415 96.9397L80.5301 94.8658H80.8256L84.3028 91.1726H86.3369L82.371 95.3772H82.104L80.5415 96.9397ZM78.979 99.8999V88.2635H80.6778V99.8999H78.979ZM84.4903 99.8999L81.3653 95.7522L82.5358 94.5647L86.5756 99.8999H84.4903ZM91.2872 100.076C90.4273 100.076 89.6868 99.8923 89.0656 99.5249C88.4482 99.1537 87.9709 98.6329 87.6338 97.9624C87.3005 97.2882 87.1338 96.4984 87.1338 95.5931C87.1338 94.6991 87.3005 93.9113 87.6338 93.2294C87.9709 92.5476 88.4406 92.0154 89.0429 91.6329C89.6489 91.2503 90.3573 91.059 91.1679 91.059C91.6603 91.059 92.1376 91.1404 92.5997 91.3033C93.0618 91.4662 93.4766 91.7219 93.844 92.0704C94.2114 92.4188 94.5012 92.8715 94.7133 93.4283C94.9255 93.9813 95.0315 94.6537 95.0315 95.4454V96.0476H88.094V94.7749H93.3667C93.3667 94.3279 93.2758 93.9321 93.094 93.5874C92.9122 93.2389 92.6565 92.9643 92.327 92.7635C92.0012 92.5628 91.6186 92.4624 91.1792 92.4624C90.702 92.4624 90.2853 92.5798 89.9292 92.8147C89.577 93.0457 89.3042 93.3488 89.1111 93.7238C88.9217 94.095 88.827 94.4984 88.827 94.934V95.9283C88.827 96.5116 88.9292 97.0079 89.1338 97.4169C89.3421 97.826 89.6319 98.1385 90.0031 98.3544C90.3743 98.5666 90.808 98.6726 91.3042 98.6726C91.6262 98.6726 91.9198 98.6272 92.1849 98.5363C92.4501 98.4416 92.6792 98.3014 92.8724 98.1158C93.0656 97.9302 93.2133 97.701 93.3156 97.4283L94.9236 97.7181C94.7948 98.1916 94.5637 98.6063 94.2304 98.9624C93.9008 99.3147 93.4861 99.5893 92.9861 99.7863C92.4898 99.9794 91.9236 100.076 91.2872 100.076ZM96.9165 99.8999V91.1726H98.5585V92.559H98.6494C98.8085 92.0893 99.0888 91.72 99.4903 91.451C99.8956 91.1783 100.354 91.0419 100.865 91.0419C100.971 91.0419 101.096 91.0457 101.24 91.0533C101.388 91.0609 101.504 91.0704 101.587 91.0817V92.7067C101.519 92.6878 101.398 92.6669 101.223 92.6442C101.049 92.6177 100.875 92.6044 100.701 92.6044C100.299 92.6044 99.9411 92.6897 99.6267 92.8601C99.3161 93.0268 99.0699 93.2598 98.8881 93.559C98.7062 93.8544 98.6153 94.1916 98.6153 94.5704V99.8999H96.9165Z" fill="#3FA7B8"/>
</svg>
