<svg width="23" height="23" viewBox="0 0 23 23" fill="none" xmlns="http://www.w3.org/2000/svg">
<path d="M18.4439 12.8007C18.0534 12.4102 17.4202 12.4102 17.0297 12.8007C16.6392 13.1912 16.6392 13.8244 17.0297 14.2149L18.4439 12.8007ZM21.7368 17.5078L22.4439 18.2149C22.8344 17.8244 22.8344 17.1912 22.4439 16.8007L21.7368 17.5078ZM17.0297 20.8007C16.6392 21.1912 16.6392 21.8244 17.0297 22.2149C17.4202 22.6054 18.0534 22.6054 18.4439 22.2149L17.0297 20.8007ZM1.73682 16.5078C1.18453 16.5078 0.736816 16.9555 0.736816 17.5078C0.736816 18.0601 1.18453 18.5078 1.73682 18.5078V16.5078ZM5.02971 10.2149C5.42023 10.6054 6.0534 10.6054 6.44392 10.2149C6.83445 9.8244 6.83445 9.19123 6.44392 8.80071L5.02971 10.2149ZM1.73682 5.50781L1.02971 4.80071C0.639185 5.19123 0.639185 5.8244 1.02971 6.21492L1.73682 5.50781ZM6.44392 2.21492C6.83445 1.8244 6.83445 1.19123 6.44392 0.800706C6.0534 0.410181 5.42023 0.410181 5.02971 0.800706L6.44392 2.21492ZM21.7368 6.50781C22.2891 6.50781 22.7368 6.0601 22.7368 5.50781C22.7368 4.95553 22.2891 4.50781 21.7368 4.50781V6.50781ZM17.0297 14.2149L21.0297 18.2149L22.4439 16.8007L18.4439 12.8007L17.0297 14.2149ZM21.0297 16.8007L17.0297 20.8007L18.4439 22.2149L22.4439 18.2149L21.0297 16.8007ZM1.73682 18.5078H21.7368V16.5078H1.73682V18.5078ZM6.44392 8.80071L2.44392 4.80071L1.02971 6.21492L5.02971 10.2149L6.44392 8.80071ZM2.44392 6.21492L6.44392 2.21492L5.02971 0.800706L1.02971 4.80071L2.44392 6.21492ZM21.7368 4.50781H1.73682V6.50781H21.7368V4.50781Z" fill="white"/>
</svg>
